# xmcd CD database file
#
# Track frame offsets:
#	150
#	16131
#	33900
#	50965
#	64844
#	75655
#	90159
#	102637
#	115702
#	130085
#	142985
#	155424
#	171650
#
# Disc length: 2548 seconds
#
# Revision: 1
# Processed by: cddbd v1.5.1PL0 Copyright (c) Steve Scherf et al.
# Submitted via: CDex 1.51
#
DISCID=a709f20d
DTITLE=Kaimini - Nac lidz
DYEAR=1999
DGENRE=Country
TTITLE0=Ievai
TTITLE1=Bugi-vugi
TTITLE2=Cilveki un koki
TTITLE3=Veja
TTITLE4=Tas nav daudz
TTITLE5=Pietiek
TTITLE6=Nac lidz
TTITLE7=Kamer
TTITLE8=Davana
TTITLE9=Vieniga
TTITLE10=Novakars
TTITLE11=Gan jau
TTITLE12=Es nezinu
EXTD=YEAR: 1999
EXTT0=
EXTT1=
EXTT2=
EXTT3=
EXTT4=
EXTT5=
EXTT6=
EXTT7=
EXTT8=
EXTT9=
EXTT10=
EXTT11=
EXTT12=
PLAYORDER=
